<svg width="99" height="20" viewBox="0 0 99 20" fill="none" xmlns="http://www.w3.org/2000/svg">
<rect width="98.075" height="20" rx="10" fill="#1352CB"/>
<path d="M24.334 13.3794L22.64 10.3874H21.914V13.3794H20.374V5.70139H23.256C23.85 5.70139 24.356 5.80773 24.774 6.02039C25.192 6.22573 25.5037 6.50806 25.709 6.86739C25.9217 7.21939 26.028 7.61539 26.028 8.05539C26.028 8.56139 25.8813 9.01973 25.588 9.43039C25.2947 9.83373 24.8583 10.1124 24.279 10.2664L26.116 13.3794H24.334ZM21.914 9.23239H23.201C23.619 9.23239 23.9307 9.13339 24.136 8.93539C24.3413 8.73006 24.444 8.44773 24.444 8.08839C24.444 7.73639 24.3413 7.46506 24.136 7.27439C23.9307 7.07639 23.619 6.97739 23.201 6.97739H21.914V9.23239ZM33.0859 10.2004C33.0859 10.4204 33.0712 10.6184 33.0419 10.7944H28.5869C28.6235 11.2344 28.7775 11.5791 29.0489 11.8284C29.3202 12.0777 29.6539 12.2024 30.0499 12.2024C30.6219 12.2024 31.0289 11.9567 31.2709 11.4654H32.9319C32.7559 12.0521 32.4185 12.5361 31.9199 12.9174C31.4212 13.2914 30.8089 13.4784 30.0829 13.4784C29.4962 13.4784 28.9682 13.3501 28.4989 13.0934C28.0369 12.8294 27.6739 12.4591 27.4099 11.9824C27.1532 11.5057 27.0249 10.9557 27.0249 10.3324C27.0249 9.70173 27.1532 9.14806 27.4099 8.67139C27.6665 8.19473 28.0259 7.82806 28.4879 7.57139C28.9499 7.31473 29.4815 7.18639 30.0829 7.18639C30.6622 7.18639 31.1792 7.31106 31.6339 7.56039C32.0959 7.80973 32.4515 8.16539 32.7009 8.62739C32.9575 9.08206 33.0859 9.60639 33.0859 10.2004ZM31.4909 9.76039C31.4835 9.36439 31.3405 9.04906 31.0619 8.81439C30.7832 8.57239 30.4422 8.45139 30.0389 8.45139C29.6575 8.45139 29.3349 8.56873 29.0709 8.80339C28.8142 9.03073 28.6565 9.34973 28.5979 9.76039H31.4909ZM33.8139 10.3104C33.8139 9.69439 33.9349 9.14806 34.1769 8.67139C34.4263 8.19473 34.7599 7.82806 35.1779 7.57139C35.6033 7.31473 36.0763 7.18639 36.5969 7.18639C37.0516 7.18639 37.4476 7.27806 37.7849 7.46139C38.1296 7.64473 38.4046 7.87573 38.6099 8.15439V7.28539H40.1609V13.3794H38.6099V12.4884C38.4119 12.7744 38.1369 13.0127 37.7849 13.2034C37.4403 13.3867 37.0406 13.4784 36.5859 13.4784C36.0726 13.4784 35.6033 13.3464 35.1779 13.0824C34.7599 12.8184 34.4263 12.4481 34.1769 11.9714C33.9349 11.4874 33.8139 10.9337 33.8139 10.3104ZM38.6099 10.3324C38.6099 9.95839 38.5366 9.63939 38.3899 9.37539C38.2433 9.10406 38.0453 8.89873 37.7959 8.75939C37.5466 8.61273 37.2789 8.53939 36.9929 8.53939C36.7069 8.53939 36.4429 8.60906 36.2009 8.74839C35.9589 8.88773 35.7609 9.09306 35.6069 9.36439C35.4603 9.62839 35.3869 9.94373 35.3869 10.3104C35.3869 10.6771 35.4603 10.9997 35.6069 11.2784C35.7609 11.5497 35.9589 11.7587 36.2009 11.9054C36.4503 12.0521 36.7143 12.1254 36.9929 12.1254C37.2789 12.1254 37.5466 12.0557 37.7959 11.9164C38.0453 11.7697 38.2433 11.5644 38.3899 11.3004C38.5366 11.0291 38.6099 10.7064 38.6099 10.3324ZM41.269 10.3104C41.269 9.69439 41.39 9.14806 41.632 8.67139C41.8813 8.19473 42.2187 7.82806 42.644 7.57139C43.0693 7.31473 43.5423 7.18639 44.063 7.18639C44.459 7.18639 44.8367 7.27439 45.196 7.45039C45.5553 7.61906 45.8413 7.84639 46.054 8.13239V5.23939H47.616V13.3794H46.054V12.4774C45.8633 12.7781 45.5957 13.0201 45.251 13.2034C44.9063 13.3867 44.5067 13.4784 44.052 13.4784C43.5387 13.4784 43.0693 13.3464 42.644 13.0824C42.2187 12.8184 41.8813 12.4481 41.632 11.9714C41.39 11.4874 41.269 10.9337 41.269 10.3104ZM46.065 10.3324C46.065 9.95839 45.9917 9.63939 45.845 9.37539C45.6983 9.10406 45.5003 8.89873 45.251 8.75939C45.0017 8.61273 44.734 8.53939 44.448 8.53939C44.162 8.53939 43.898 8.60906 43.656 8.74839C43.414 8.88773 43.216 9.09306 43.062 9.36439C42.9153 9.62839 42.842 9.94373 42.842 10.3104C42.842 10.6771 42.9153 10.9997 43.062 11.2784C43.216 11.5497 43.414 11.7587 43.656 11.9054C43.9053 12.0521 44.1693 12.1254 44.448 12.1254C44.734 12.1254 45.0017 12.0557 45.251 11.9164C45.5003 11.7697 45.6983 11.5644 45.845 11.3004C45.9917 11.0291 46.065 10.7064 46.065 10.3324ZM60.1122 5.70139V13.3794H58.5722V8.38539L56.5152 13.3794H55.3492L53.2812 8.38539V13.3794H51.7412V5.70139H53.4902L55.9322 11.4104L58.3742 5.70139H60.1122ZM64.3407 13.4784C63.7541 13.4784 63.2261 13.3501 62.7567 13.0934C62.2874 12.8294 61.9171 12.4591 61.6457 11.9824C61.3817 11.5057 61.2497 10.9557 61.2497 10.3324C61.2497 9.70906 61.3854 9.15906 61.6567 8.68239C61.9354 8.20573 62.3131 7.83906 62.7897 7.58239C63.2664 7.31839 63.7981 7.18639 64.3847 7.18639C64.9714 7.18639 65.5031 7.31839 65.9797 7.58239C66.4564 7.83906 66.8304 8.20573 67.1017 8.68239C67.3804 9.15906 67.5197 9.70906 67.5197 10.3324C67.5197 10.9557 67.3767 11.5057 67.0907 11.9824C66.8121 12.4591 66.4307 12.8294 65.9467 13.0934C65.4701 13.3501 64.9347 13.4784 64.3407 13.4784ZM64.3407 12.1364C64.6194 12.1364 64.8797 12.0704 65.1217 11.9384C65.3711 11.7991 65.5691 11.5937 65.7157 11.3224C65.8624 11.0511 65.9357 10.7211 65.9357 10.3324C65.9357 9.75306 65.7817 9.30939 65.4737 9.00139C65.1731 8.68606 64.8027 8.52839 64.3627 8.52839C63.9227 8.52839 63.5524 8.68606 63.2517 9.00139C62.9584 9.30939 62.8117 9.75306 62.8117 10.3324C62.8117 10.9117 62.9547 11.3591 63.2407 11.6744C63.5341 11.9824 63.9007 12.1364 64.3407 12.1364ZM70.1894 8.23139C70.3874 7.90873 70.644 7.65573 70.9594 7.47239C71.282 7.28906 71.6487 7.19739 72.0594 7.19739V8.81439H71.6524C71.1684 8.81439 70.8017 8.92806 70.5524 9.15539C70.3104 9.38273 70.1894 9.77873 70.1894 10.3434V13.3794H68.6494V7.28539H70.1894V8.23139ZM78.7616 10.2004C78.7616 10.4204 78.747 10.6184 78.7176 10.7944H74.2626C74.2993 11.2344 74.4533 11.5791 74.7246 11.8284C74.996 12.0777 75.3296 12.2024 75.7256 12.2024C76.2976 12.2024 76.7046 11.9567 76.9466 11.4654H78.6076C78.4316 12.0521 78.0943 12.5361 77.5956 12.9174C77.097 13.2914 76.4846 13.4784 75.7586 13.4784C75.172 13.4784 74.644 13.3501 74.1746 13.0934C73.7126 12.8294 73.3496 12.4591 73.0856 11.9824C72.829 11.5057 72.7006 10.9557 72.7006 10.3324C72.7006 9.70173 72.829 9.14806 73.0856 8.67139C73.3423 8.19473 73.7016 7.82806 74.1636 7.57139C74.6256 7.31473 75.1573 7.18639 75.7586 7.18639C76.338 7.18639 76.855 7.31106 77.3096 7.56039C77.7716 7.80973 78.1273 8.16539 78.3766 8.62739C78.6333 9.08206 78.7616 9.60639 78.7616 10.2004ZM77.1666 9.76039C77.1593 9.36439 77.0163 9.04906 76.7376 8.81439C76.459 8.57239 76.118 8.45139 75.7146 8.45139C75.3333 8.45139 75.0106 8.56873 74.7466 8.80339C74.49 9.03073 74.3323 9.34973 74.2736 9.76039H77.1666Z" fill="white"/>
</svg>
