<svg width="161" height="30" viewBox="0 0 161 30" fill="none" xmlns="http://www.w3.org/2000/svg">
<rect width="161" height="30" rx="15" fill="#1352CB"/>
<path d="M59.8991 14.336C59.8991 14.9053 59.7684 15.428 59.5071 15.904C59.2458 16.3707 58.8444 16.7487 58.3031 17.038C57.7618 17.3273 57.0898 17.472 56.2871 17.472H54.8031V21H52.4091V11.172H56.2871C57.0711 11.172 57.7338 11.3073 58.2751 11.578C58.8164 11.8487 59.2224 12.222 59.4931 12.698C59.7638 13.174 59.8991 13.72 59.8991 14.336ZM56.1051 15.568C56.5624 15.568 56.9031 15.4607 57.1271 15.246C57.3511 15.0313 57.4631 14.728 57.4631 14.336C57.4631 13.944 57.3511 13.6407 57.1271 13.426C56.9031 13.2113 56.5624 13.104 56.1051 13.104H54.8031V15.568H56.1051ZM62.3494 12.376C61.9294 12.376 61.5841 12.2547 61.3134 12.012C61.0521 11.76 60.9214 11.452 60.9214 11.088C60.9214 10.7147 61.0521 10.4067 61.3134 10.164C61.5841 9.912 61.9294 9.786 62.3494 9.786C62.7601 9.786 63.0961 9.912 63.3574 10.164C63.6281 10.4067 63.7634 10.7147 63.7634 11.088C63.7634 11.452 63.6281 11.76 63.3574 12.012C63.0961 12.2547 62.7601 12.376 62.3494 12.376ZM63.5394 13.188V21H61.1454V13.188H63.5394ZM67.6683 10.64V21H65.2743V10.64H67.6683ZM70.6072 12.376C70.1872 12.376 69.8419 12.2547 69.5712 12.012C69.3099 11.76 69.1792 11.452 69.1792 11.088C69.1792 10.7147 69.3099 10.4067 69.5712 10.164C69.8419 9.912 70.1872 9.786 70.6072 9.786C71.0179 9.786 71.3539 9.912 71.6152 10.164C71.8859 10.4067 72.0212 10.7147 72.0212 11.088C72.0212 11.452 71.8859 11.76 71.6152 12.012C71.3539 12.2547 71.0179 12.376 70.6072 12.376ZM71.7972 13.188V21H69.4032V13.188H71.7972ZM78.3341 13.104C79.2301 13.104 79.9488 13.4027 80.4901 14C81.0315 14.588 81.3021 15.4 81.3021 16.436V21H78.9221V16.758C78.9221 16.2353 78.7868 15.8293 78.5161 15.54C78.2455 15.2507 77.8815 15.106 77.4241 15.106C76.9668 15.106 76.6028 15.2507 76.3321 15.54C76.0615 15.8293 75.9261 16.2353 75.9261 16.758V21H73.5321V10.64H75.9261V14.238C76.1688 13.8927 76.5001 13.6173 76.9201 13.412C77.3401 13.2067 77.8115 13.104 78.3341 13.104ZM92.3305 11.172V13.09H88.3265V15.162H91.3225V17.024H88.3265V21H85.9325V11.172H92.3305ZM94.7928 12.376C94.3728 12.376 94.0274 12.2547 93.7568 12.012C93.4954 11.76 93.3648 11.452 93.3648 11.088C93.3648 10.7147 93.4954 10.4067 93.7568 10.164C94.0274 9.912 94.3728 9.786 94.7928 9.786C95.2034 9.786 95.5394 9.912 95.8008 10.164C96.0714 10.4067 96.2068 10.7147 96.2068 11.088C96.2068 11.452 96.0714 11.76 95.8008 12.012C95.5394 12.2547 95.2034 12.376 94.7928 12.376ZM95.9828 13.188V21H93.5888V13.188H95.9828ZM100.112 10.64V21H97.7177V10.64H100.112ZM109.211 16.968C109.211 17.192 109.197 17.4253 109.169 17.668H103.751C103.788 18.1533 103.942 18.5267 104.213 18.788C104.493 19.04 104.833 19.166 105.235 19.166C105.832 19.166 106.247 18.914 106.481 18.41H109.029C108.898 18.9233 108.66 19.3853 108.315 19.796C107.979 20.2067 107.554 20.5287 107.041 20.762C106.527 20.9953 105.953 21.112 105.319 21.112C104.553 21.112 103.872 20.9487 103.275 20.622C102.677 20.2953 102.211 19.8287 101.875 19.222C101.539 18.6153 101.371 17.906 101.371 17.094C101.371 16.282 101.534 15.5727 101.861 14.966C102.197 14.3593 102.663 13.8927 103.261 13.566C103.858 13.2393 104.544 13.076 105.319 13.076C106.075 13.076 106.747 13.2347 107.335 13.552C107.923 13.8693 108.38 14.322 108.707 14.91C109.043 15.498 109.211 16.184 109.211 16.968ZM106.761 16.338C106.761 15.9273 106.621 15.6007 106.341 15.358C106.061 15.1153 105.711 14.994 105.291 14.994C104.889 14.994 104.549 15.1107 104.269 15.344C103.998 15.5773 103.83 15.9087 103.765 16.338H106.761Z" fill="#EDF3F8"/>
</svg>
