<svg width="150" height="29" viewBox="0 0 150 29" fill="none" xmlns="http://www.w3.org/2000/svg">
<rect width="150" height="29" rx="14.5" fill="#1352CB"/>
<path d="M36.864 20L34.4 15.648H33.344V20H31.104V8.832H35.296C36.16 8.832 36.896 8.98667 37.504 9.296C38.112 9.59467 38.5653 10.0053 38.864 10.528C39.1733 11.04 39.328 11.616 39.328 12.256C39.328 12.992 39.1147 13.6587 38.688 14.256C38.2613 14.8427 37.6267 15.248 36.784 15.472L39.456 20H36.864ZM33.344 13.968H35.216C35.824 13.968 36.2773 13.824 36.576 13.536C36.8747 13.2373 37.024 12.8267 37.024 12.304C37.024 11.792 36.8747 11.3973 36.576 11.12C36.2773 10.832 35.824 10.688 35.216 10.688H33.344V13.968ZM49.594 15.376C49.594 15.696 49.5727 15.984 49.53 16.24H43.05C43.1033 16.88 43.3273 17.3813 43.722 17.744C44.1167 18.1067 44.602 18.288 45.178 18.288C46.01 18.288 46.602 17.9307 46.954 17.216H49.37C49.114 18.0693 48.6233 18.7733 47.898 19.328C47.1727 19.872 46.282 20.144 45.226 20.144C44.3727 20.144 43.6047 19.9573 42.922 19.584C42.25 19.2 41.722 18.6613 41.338 17.968C40.9647 17.2747 40.778 16.4747 40.778 15.568C40.778 14.6507 40.9647 13.8453 41.338 13.152C41.7113 12.4587 42.234 11.9253 42.906 11.552C43.578 11.1787 44.3513 10.992 45.226 10.992C46.0687 10.992 46.8207 11.1733 47.482 11.536C48.154 11.8987 48.6713 12.416 49.034 13.088C49.4073 13.7493 49.594 14.512 49.594 15.376ZM47.274 14.736C47.2633 14.16 47.0553 13.7013 46.65 13.36C46.2447 13.008 45.7487 12.832 45.162 12.832C44.6073 12.832 44.138 13.0027 43.754 13.344C43.3807 13.6747 43.1513 14.1387 43.066 14.736H47.274ZM50.653 15.536C50.653 14.64 50.829 13.8453 51.181 13.152C51.5437 12.4587 52.029 11.9253 52.637 11.552C53.2557 11.1787 53.9437 10.992 54.701 10.992C55.3623 10.992 55.9383 11.1253 56.429 11.392C56.9303 11.6587 57.3303 11.9947 57.629 12.4V11.136H59.885V20H57.629V18.704C57.341 19.12 56.941 19.4667 56.429 19.744C55.9277 20.0107 55.3463 20.144 54.685 20.144C53.9383 20.144 53.2557 19.952 52.637 19.568C52.029 19.184 51.5437 18.6453 51.181 17.952C50.829 17.248 50.653 16.4427 50.653 15.536ZM57.629 15.568C57.629 15.024 57.5223 14.56 57.309 14.176C57.0957 13.7813 56.8077 13.4827 56.445 13.28C56.0823 13.0667 55.693 12.96 55.277 12.96C54.861 12.96 54.477 13.0613 54.125 13.264C53.773 13.4667 53.485 13.7653 53.261 14.16C53.0477 14.544 52.941 15.0027 52.941 15.536C52.941 16.0693 53.0477 16.5387 53.261 16.944C53.485 17.3387 53.773 17.6427 54.125 17.856C54.4877 18.0693 54.8717 18.176 55.277 18.176C55.693 18.176 56.0823 18.0747 56.445 17.872C56.8077 17.6587 57.0957 17.36 57.309 16.976C57.5223 16.5813 57.629 16.112 57.629 15.568ZM61.4967 15.536C61.4967 14.64 61.6727 13.8453 62.0247 13.152C62.3874 12.4587 62.8781 11.9253 63.4968 11.552C64.1154 11.1787 64.8034 10.992 65.5608 10.992C66.1368 10.992 66.6861 11.12 67.2088 11.376C67.7314 11.6213 68.1474 11.952 68.4568 12.368V8.16H70.7288V20H68.4568V18.688C68.1794 19.1253 67.7901 19.4773 67.2888 19.744C66.7874 20.0107 66.2061 20.144 65.5448 20.144C64.7981 20.144 64.1154 19.952 63.4968 19.568C62.8781 19.184 62.3874 18.6453 62.0247 17.952C61.6727 17.248 61.4967 16.4427 61.4967 15.536ZM68.4728 15.568C68.4728 15.024 68.3661 14.56 68.1528 14.176C67.9394 13.7813 67.6514 13.4827 67.2888 13.28C66.9261 13.0667 66.5368 12.96 66.1208 12.96C65.7048 12.96 65.3208 13.0613 64.9688 13.264C64.6168 13.4667 64.3288 13.7653 64.1048 14.16C63.8914 14.544 63.7848 15.0027 63.7848 15.536C63.7848 16.0693 63.8914 16.5387 64.1048 16.944C64.3288 17.3387 64.6168 17.6427 64.9688 17.856C65.3314 18.0693 65.7154 18.176 66.1208 18.176C66.5368 18.176 66.9261 18.0747 67.2888 17.872C67.6514 17.6587 67.9394 17.36 68.1528 16.976C68.3661 16.5813 68.4728 16.112 68.4728 15.568ZM88.905 8.832V20H86.665V12.736L83.673 20H81.977L78.969 12.736V20H76.729V8.832H79.273L82.825 17.136L86.377 8.832H88.905ZM95.0556 20.144C94.2023 20.144 93.4343 19.9573 92.7516 19.584C92.069 19.2 91.5303 18.6613 91.1356 17.968C90.7516 17.2747 90.5596 16.4747 90.5596 15.568C90.5596 14.6613 90.757 13.8613 91.1516 13.168C91.557 12.4747 92.1063 11.9413 92.7996 11.568C93.493 11.184 94.2663 10.992 95.1196 10.992C95.973 10.992 96.7463 11.184 97.4396 11.568C98.133 11.9413 98.677 12.4747 99.0716 13.168C99.477 13.8613 99.6796 14.6613 99.6796 15.568C99.6796 16.4747 99.4716 17.2747 99.0556 17.968C98.6503 18.6613 98.0956 19.2 97.3916 19.584C96.6983 19.9573 95.9196 20.144 95.0556 20.144ZM95.0556 18.192C95.461 18.192 95.8396 18.096 96.1916 17.904C96.5543 17.7013 96.8423 17.4027 97.0556 17.008C97.269 16.6133 97.3756 16.1333 97.3756 15.568C97.3756 14.7253 97.1516 14.08 96.7036 13.632C96.2663 13.1733 95.7276 12.944 95.0876 12.944C94.4476 12.944 93.909 13.1733 93.4716 13.632C93.045 14.08 92.8316 14.7253 92.8316 15.568C92.8316 16.4107 93.0396 17.0613 93.4556 17.52C93.8823 17.968 94.4156 18.192 95.0556 18.192ZM103.563 12.512C103.851 12.0427 104.224 11.6747 104.683 11.408C105.152 11.1413 105.685 11.008 106.283 11.008V13.36H105.691C104.987 13.36 104.453 13.5253 104.091 13.856C103.739 14.1867 103.563 14.7627 103.563 15.584V20H101.323V11.136H103.563V12.512ZM116.032 15.376C116.032 15.696 116.01 15.984 115.968 16.24H109.488C109.541 16.88 109.765 17.3813 110.16 17.744C110.554 18.1067 111.04 18.288 111.616 18.288C112.448 18.288 113.04 17.9307 113.392 17.216H115.808C115.552 18.0693 115.061 18.7733 114.336 19.328C113.61 19.872 112.72 20.144 111.664 20.144C110.81 20.144 110.042 19.9573 109.36 19.584C108.688 19.2 108.16 18.6613 107.776 17.968C107.402 17.2747 107.215 16.4747 107.215 15.568C107.215 14.6507 107.402 13.8453 107.776 13.152C108.149 12.4587 108.672 11.9253 109.344 11.552C110.016 11.1787 110.789 10.992 111.664 10.992C112.506 10.992 113.258 11.1733 113.92 11.536C114.592 11.8987 115.109 12.416 115.472 13.088C115.845 13.7493 116.032 14.512 116.032 15.376ZM113.712 14.736C113.701 14.16 113.493 13.7013 113.088 13.36C112.682 13.008 112.186 12.832 111.6 12.832C111.045 12.832 110.576 13.0027 110.192 13.344C109.818 13.6747 109.589 14.1387 109.504 14.736H113.712Z" fill="white"/>
</svg>
